<?xml version="1.0" encoding="utf-8"?>
<!-- Generator: Adobe Illustrator 25.1.0, SVG Export Plug-In . SVG Version: 6.00 Build 0)  -->
<svg version="1.1" id="Filled" xmlns="http://www.w3.org/2000/svg" xmlns:xlink="http://www.w3.org/1999/xlink" x="0px" y="0px"
	 viewBox="0 0 24 24" style="enable-background:new 0 0 24 24;" xml:space="preserve">
<style type="text/css">
	.st0{fill:#4ECDC4;}
	.st1{fill:#292F36;}
	.st2{fill:#FFFFFF;}
	.st3{fill:#FF6B6B;}
</style>
<path class="st0" d="M4,0h3c2.2,0,4,1.8,4,4v3c0,2.2-1.8,4-4,4H4c-2.2,0-4-1.8-4-4V4C0,1.8,1.8,0,4,0z"/>
<path class="st1" d="M17,0h3c2.2,0,4,1.8,4,4v3c0,2.2-1.8,4-4,4h-3c-2.2,0-4-1.8-4-4V4C13,1.8,14.8,0,17,0z"/>
<path class="st2" d="M4,13h3c2.2,0,4,1.8,4,4v3c0,2.2-1.8,4-4,4H4c-2.2,0-4-1.8-4-4v-3C0,14.8,1.8,13,4,13z"/>
<path class="st3" d="M17,13h3c2.2,0,4,1.8,4,4v3c0,2.2-1.8,4-4,4h-3c-2.2,0-4-1.8-4-4v-3C13,14.8,14.8,13,17,13z"/>
</svg>
